<svg id="Слой_1" data-name="Слой 1" xmlns="http://www.w3.org/2000/svg" width="65" height="65" viewBox="0 0 65 65">
  <defs>
    <style>
      .cls-1 {
        fill: #e4e2e3;
      }

      .cls-2 {
        fill: #df7c41;
      }
    </style>
  </defs>
  <title>gh-icon</title>
  <g>
    <path class="cls-1" d="M33.63,11.47H13.2A10.77,10.77,0,0,0,2.43,22.24V42.69A10.77,10.77,0,0,0,13.19,53.47H33.63A10.78,10.78,0,0,0,44.39,42.69h0V22.26A10.77,10.77,0,0,0,33.64,11.47Zm-10,35.2a14.22,14.22,0,1,1,14-14.45v.25a14.1,14.1,0,0,1-14,14.22h0Z"/>
    <ellipse class="cls-1" cx="23.64" cy="32.48" rx="6.77" ry="8.57"/>
    <path class="cls-2" d="M53.69,12.55,50.3,22H49l-3.09-9.47h1.32l1.48,4.66c.41,1.28.76,2.43,1,3.54h0c.27-1.09.66-2.29,1.08-3.52l1.6-4.68h1.31m.64-.45H52.06l-.11.3-1.6,4.68c-.21.63-.44,1.31-.65,2-.18-.62-.38-1.28-.61-2l-1.48-4.67-.1-.31H45.24l.19.59,3.09,9.47.1.31h2l.1-.3,3.39-9.47.22-.6Z"/>
    <path class="cls-2" d="M61.59,12.55l-3.43,4L61.86,22H60.41l-3.12-4.63-.9,1V22H55.17V12.55h1.22v4.56h0c.25-.36.5-.7.74-1l2.9-3.55h1.51m1-.45h-2.7l-.14.16-2.89,3.54V12.1H54.72V22.47h2.12V18.58l.4-.47L60,22.27l.13.2h2.57l-.48-.7-3.5-5.17,3.2-3.76.64-.74Z"/>
    <path class="cls-2" d="M48.74,22.18,45.5,12.25h1.79l1.54,4.82c.32,1,.6,1.91.81,2.76.27-.93.58-1.89.88-2.74l1.65-4.84H54l-3.55,9.93Z"/>
    <path class="cls-2" d="M60.24,22.18l-3-4.51-.65.75v3.76h-1.7V12.25h1.68V16.4l.38-.51,3-3.64h2.11l-3.64,4.27,3.85,5.66Z"/>
  </g>
</svg>
