<?xml version="1.0" encoding="utf-8"?>
<!-- Generator: Adobe Illustrator 23.1.0, SVG Export Plug-In . SVG Version: 6.00 Build 0)  -->
<svg version="1.1"
	 id="svg5" inkscape:version="1.1.1 (3bf5ae0d25, 2021-09-20)" sodipodi:docname="groups.svg" xmlns:inkscape="http://www.inkscape.org/namespaces/inkscape" xmlns:sodipodi="http://sodipodi.sourceforge.net/DTD/sodipodi-0.dtd" xmlns:svg="http://www.w3.org/2000/svg"
	 xmlns="http://www.w3.org/2000/svg" xmlns:xlink="http://www.w3.org/1999/xlink" x="0px" y="0px" viewBox="0 0 11 11"
	 style="enable-background:new 0 0 11 11;" xml:space="preserve">
<style type="text/css">
	.st0{fill:#68B42E;}
</style>
<sodipodi:namedview  bordercolor="#eeeeee" borderopacity="1" id="namedview7" inkscape:current-layer="layer1" inkscape:cx="6.1706114" inkscape:cy="9.5625141" inkscape:document-units="px" inkscape:pagecheckerboard="0" inkscape:pageopacity="0" inkscape:pageshadow="0" inkscape:snap-grids="true" inkscape:window-height="1017" inkscape:window-maximized="1" inkscape:window-width="1920" inkscape:window-x="-8" inkscape:window-y="-8" inkscape:zoom="90.50967" pagecolor="#505050" showgrid="true" units="px" width="11px">
	
		<inkscape:grid  color="#45ff3f" dotted="false" empcolor="#3fff4a" empopacity="0.25098039" empspacing="11" enabled="true" id="grid9" opacity="0.1254902" snapvisiblegridlinesonly="true" type="xygrid">
		</inkscape:grid>
</sodipodi:namedview>
<g id="layer1" inkscape:groupmode="layer" inkscape:label="Layer 1">
	<path id="path6010" sodipodi:nodetypes="ccccsscscc" class="st0" d="M0,11c0-2,2.5-3.5,2.5-3.5S3,8.2,3.8,8.2
		c0.8,0,1.6-0.7,1.6-0.7S6,7.6,6.6,8c0.6,0.4,0.7,0.7,1.2,0.7S9.2,8,9.2,8s0.5,0.1,1,0.6C10.8,9.2,11,11,11,11L0,11z"/>
	<path id="path6078" class="st0" d="M4,2.7c0,0,1.7,0.2,1.7,1.9c0,1.7-1.1,3.2-1.7,3.2S2,6.4,2,4.6S4,2.7,4,2.7z"/>
	<path id="path6146" sodipodi:nodetypes="ccssc" class="st0" d="M8,4c0,0,1.5,0.2,1.5,1.5c0,1.3-0.6,2.6-1.4,2.6
		c-0.8,0-1.7-1.4-1.7-2.6C6.4,4.2,8,4,8,4z"/>
</g>
</svg>
