<?xml version="1.0" encoding="utf-8"?>
<!-- Generator: Adobe Illustrator 23.1.0, SVG Export Plug-In . SVG Version: 6.00 Build 0)  -->
<svg version="1.1"
	 id="svg5" inkscape:version="1.2.2 (732a01da63, 2022-12-09)" sodipodi:docname="messages.svg" xmlns:inkscape="http://www.inkscape.org/namespaces/inkscape" xmlns:sodipodi="http://sodipodi.sourceforge.net/DTD/sodipodi-0.dtd" xmlns:svg="http://www.w3.org/2000/svg"
	 xmlns="http://www.w3.org/2000/svg" xmlns:xlink="http://www.w3.org/1999/xlink" x="0px" y="0px" viewBox="0 0 11 11"
	 style="enable-background:new 0 0 11 11;" xml:space="preserve">
<style type="text/css">
	.st0{fill:#68B42E;}
</style>
<sodipodi:namedview  bordercolor="#eeeeee" borderopacity="1" id="namedview7" inkscape:current-layer="layer1" inkscape:cx="5.1015625" inkscape:cy="5.6875" inkscape:deskcolor="#505050" inkscape:document-units="px" inkscape:pagecheckerboard="0" inkscape:pageopacity="0" inkscape:pageshadow="0" inkscape:showpageshadow="2" inkscape:window-height="1057" inkscape:window-maximized="1" inkscape:window-width="1858" inkscape:window-x="-8" inkscape:window-y="-8" inkscape:zoom="64" pagecolor="#505050" showgrid="true" units="px" width="11px">
	
		<inkscape:grid  color="#45ff3f" dotted="false" empcolor="#3fff4a" empopacity="0.25098039" empspacing="11" enabled="true" id="grid9" opacity="0.1254902" snapvisiblegridlinesonly="true" type="xygrid">
		</inkscape:grid>
</sodipodi:namedview>
<g id="layer1" inkscape:groupmode="layer" inkscape:label="Layer 1">
	<path id="path2791" class="st0" d="M2,1C0,1,0,3,0,3v5c0,2,2,2,2,2h7c2,0,2-2,2-2V3c0-2-2-2-2-2H2z M1.5,2c0.1,0,0.3,0.1,0.4,0.1
		l3,3c0,0,0,0,0,0c0,0,0,0,0,0.1l0.6,0.6l0.6-0.6c0,0,0-0.1,0.1-0.1c0,0,0,0,0.1-0.1l2.9-2.9C9.4,2,9.7,2,9.9,2.1c0,0,0,0,0,0
		c0.2,0.2,0.2,0.5,0,0.7c0,0,0,0,0,0L7.2,5.5l2.6,2.6c0.2,0.2,0.2,0.5,0,0.7C9.7,9,9.3,9,9.1,8.9c0,0,0,0,0,0L6.5,6.2L5.9,6.9
		c-0.2,0.2-0.5,0.2-0.7,0c0,0,0,0,0,0L4.5,6.2L1.9,8.9C1.7,9,1.3,9,1.1,8.9c0,0,0,0,0,0c-0.2-0.2-0.2-0.5,0-0.7c0,0,0,0,0,0l2.6-2.6
		L1.1,2.9c-0.2-0.2-0.2-0.5,0-0.7c0,0,0,0,0,0C1.2,2.1,1.4,2,1.5,2z"/>
</g>
</svg>
