<?xml version="1.0" encoding="utf-8"?>
<!-- Generator: Adobe Illustrator 23.1.0, SVG Export Plug-In . SVG Version: 6.00 Build 0)  -->
<svg version="1.1"
	 id="svg5" inkscape:version="1.1.1 (3bf5ae0d25, 2021-09-20)" sodipodi:docname="photos.svg" xmlns:inkscape="http://www.inkscape.org/namespaces/inkscape" xmlns:sodipodi="http://sodipodi.sourceforge.net/DTD/sodipodi-0.dtd" xmlns:svg="http://www.w3.org/2000/svg"
	 xmlns="http://www.w3.org/2000/svg" xmlns:xlink="http://www.w3.org/1999/xlink" x="0px" y="0px" viewBox="0 0 11 11"
	 style="enable-background:new 0 0 11 11;" xml:space="preserve">
<style type="text/css">
	.st0{fill:#68B42E;}
</style>
<sodipodi:namedview  bordercolor="#eeeeee" borderopacity="1" id="namedview7" inkscape:current-layer="layer1" inkscape:cx="3.4921875" inkscape:cy="5.4921875" inkscape:document-units="px" inkscape:pagecheckerboard="0" inkscape:pageopacity="0" inkscape:pageshadow="0" inkscape:window-height="1017" inkscape:window-maximized="1" inkscape:window-width="1920" inkscape:window-x="-8" inkscape:window-y="-8" inkscape:zoom="64" pagecolor="#505050" showgrid="true" units="px" width="11px">
	
		<inkscape:grid  color="#45ff3f" dotted="false" empcolor="#3fff4a" empopacity="0.25098039" empspacing="11" enabled="true" id="grid9" opacity="0.1254902" snapvisiblegridlinesonly="true" type="xygrid">
		</inkscape:grid>
</sodipodi:namedview>
<g id="layer1" inkscape:groupmode="layer" inkscape:label="Layer 1">
	<path id="path1070" class="st0" d="M4,1c0,0,0,1-1,1H2C0,2,0,4,0,4v4c0,2,2,2,2,2h7c2,0,2-2,2-2V4c0-2-2-2-2-2H8C7,2,7,1,7,1H4z
		 M5.5,4C6.3,4,7,4.7,7,5.5S6.3,7,5.5,7S4,6.3,4,5.5S4.7,4,5.5,4z"/>
</g>
</svg>
