<svg id="Слой_1" data-name="Слой 1" xmlns="http://www.w3.org/2000/svg" viewBox="0 0 1536 863.85"><defs><style>.cls-1{fill:#7b9331;}.cls-2{fill:#6cb2e8;}.cls-3{fill:#62ade4;}.cls-4{fill:#7cbbf0;}.cls-5{fill:#5b882f;}.cls-6{fill:#8ac2f5;}.cls-7{fill:#71b7ea;}.cls-8{fill:#7abcf0;}.cls-9{fill:#264349;}.cls-10{fill:#6db3e9;}.cls-11{fill:#6bb2e8;}.cls-12{fill:#89c2f7;}.cls-13{fill:#99c8f2;}.cls-14{fill:#91c6ee;}.cls-15{fill:#a1cef5;}.cls-16{fill:#b7d9f5;}</style></defs><title>bg</title><path class="cls-1" d="M1535.9,746.78c0,37.49-.06,75,.1,112.47,0,3.75-.85,4.6-4.6,4.6q-530.43-.15-1060.86-.1-233,0-465.95.1C.85,863.85,0,863,0,859.25Q.18,698.54.09,537.83c2.06-2.55,5.09-3,8-3.69,40-9.06,80.4-15.34,121-20.26,25.58-3.1,51.24-5.75,77-7.42,18.42-1.19,36.84-2.29,55.28-3.16,20.78-1,41.58-1.12,62.34-2,29.48-1.28,59-1,88.4-.47,21.08.4,42.21.73,63.3,2.22,10.71.76,21.55.84,32.33.77,5.36,1.06,10.8.58,16.2.91,3.47.4,6.93,1,10.44.46,15.13,1.48,30.34,1.79,45.46,3.36,6.57.68,13.17,1.06,19.77,1.32,5.35,1.57,11.07,0,16.4,1.88,22.91,8.23,46.48,14.42,69.54,22.17,23.49,7.89,47.23,15,70.84,22.47,19,6,38.06,12,57.24,17.56,13.4,3.89,26.63,8.37,40.07,12.16,22.4,6.31,44.41,13.86,66.84,20.09,15.05,4.18,29.89,9.15,44.93,13.42,13.74,3.9,27.36,8.27,41.17,11.94,20.9,5.54,41.52,12.06,62.39,17.7,24.24,6.54,48.46,13.2,72.74,19.6,18.92,5,38,9.54,57,14.18,26.66,6.5,53.37,12.88,80.33,17.86,26.63,4.93,53.33,9.56,80.05,14.07,16.54,2.79,33.08,5.83,49.62,8.73,20.46,3.59,41.09,6.35,61.49,10.21,13.72,2.59,27.62,4,41.27,7,5.81,1.28,11.86,1.55,17.71,2.88C1531.66,744.29,1534.21,744.61,1535.9,746.78Z"/><path class="cls-2" d="M773.19,286.85c-2.8-2.33-6.32-4.51-7.19-8.64.43-4.91-.17-5.5-5.54-5.41a9,9,0,0,1-4.12-5.32c.17-.83-.25-1.13-1.07-1.07a8.3,8.3,0,0,1-4.14-5.22c.74-4.28.37-4.67-4.26-4.4-6.07-3-8.68-8.92-12.13-14.15,1-1.53,2.63-1.75,4.24-2.18-2.83.92-5.54-.41-8.31-.2-6.25-2.68-9.31-8.6-13.57-13.29,0-.69-.18-1.2-1.06-1.16-2.1-.37-3.87-1.2-4.81-3.25-.17-3.8-2.26-5.65-6-5.84a4.73,4.73,0,0,1-2.54-3.39c.07-4.38-2.64-1.83-4.37-1.73-8.3-6.77-17.26-12.68-25.34-19.73-2-1.78-4.06-3.77-6.64-4.3-5.36-1.1-8.8-5-13-7.87-9.55-6.5-18.65-14.2-29.39-18.25-10.44-3.94-19.2-10.6-28.88-15.61-9.32-4.82-19.37-7-28.6-11.55-11.59-5.7-24.24-8.38-36.39-12.44-8.87-3-18-4.88-26.82-7.89-6.39-2.18-13.33-2.53-19.74-4.63-8.87-2.91-18.37-1.62-27.21-4.68-2.71-.93-5.88-.78-8.81-1-13.85-1.26-27.5-5-41.42-4.59-11.8.34-23.56-.56-35.35.07-9.45.51-18.93.84-28.4.58a15.39,15.39,0,0,0-4.88.6,69.6,69.6,0,0,1-21.53,3.09,25.55,25.55,0,0,0-7.32,1.19c-11.2,2.91-22.64,4.6-33.94,7-15.59,3.32-30.51,8.91-45.92,12.67-11.17,2.72-21.61,7.08-32.17,11.21-7.05,2.75-13.85,6.22-20.74,9.41a39.66,39.66,0,0,1-7,2.39c-5.87,1.45-9.73,6.12-14.92,8.65-12.94,6.31-25.46,13.45-37.74,20.93-8.17,5-15.86,10.92-23.93,16.05s-14.54,11.73-22,17.31a176.17,176.17,0,0,0-22.62,19.95c-5.46,5.8-11.75,11.22-17.52,16.84S18,257.76,13.6,264.61c-2.35,3.62-6.3,5.36-9.23,8.29-1.49,1.48-3.08.35-4.28-1Q.09,138.17,0,4.44C0,.69.85-.15,4.59-.15Q490.79,0,977-.06c4.18,2.85,7.2,6.4,7.32,11.77,0,.84.14,2.12.76,2.28,5.1,1.36,6.53,7.25,11.28,9,.79.29,1.87.54,2.12,1.22,2.13,5.76,8.83,7.4,11.38,12.74,1.28,2.69,4.1,3.79,6.09,5.76,3.13,3.09,6.38,6.62,7.55,10.35,1.66,5.31,2.83,10.29,8,13.29.25.15.33.58.39.91,1.89,10.76,10.06,15.85,18.36,21.21,5.1,3.29,9.55,7.82,10.94,14.23,1.44,6.66,4.12,13,5.25,19.72.5,3,3,3.94,5.53,4.16,4.11.35,6.68,2.46,8.45,6a40.18,40.18,0,0,0,5.46,8.78,11,11,0,0,1,2.62,10.19c-.84,3.58.49,6.53,4.21,8.05,3.46,1.42,5,4,5,7.84a8.63,8.63,0,0,0,4.18,7.46c4.32,3,7.5,7,8.44,12.43a7.41,7.41,0,0,0,1.48,3.67c2.69,3.12,3.17,6.2,1.1,10-1.21,2.23-.49,4.46,2.67,5.22,4,1,5.65,3.83,5.54,7.82a13,13,0,0,0,1.36,6.79c2.51,4.41,4.23,8.94,4,14.12a3.68,3.68,0,0,0,2.86,3.68c4.86,1.6,6.46,5.42,6.7,10,.16,3.09.59,5.92,3.28,8a3.5,3.5,0,0,1,1.44,2.56c0,6.65,4.34,12.17,4.8,18.73.42,5.89,5.38,10.35,5.8,16.21.58,8,6.49,14,7.35,21.86.27,2.46.89,4.73.31,7.28-1.07,4.73-1.57,8.88,3.3,12.84,4.25,3.47,4.39,10,5,15.25a223.4,223.4,0,0,0,4.74,27.19c2,8.54,3.32,17.3,2.4,26.2-.29,2.82-.32,5.65,1.67,8.09.75.91,1.32,2.67.57,3.24-3.71,2.81-2,7.14-3.35,10.59a17.39,17.39,0,0,1-6.73,3.11c-7.34,2.07-10.64-.59-10.52-8.28.57-1.59,2-2.09,3.41-2.58,4.63-1.6,7-5.17,7-10.36-2.87,6.49-5,6.84-10,1.42-.39,1.43,0,3-1.24,4-2.77.77-4-1.19-5-3.11a176.94,176.94,0,0,0-29.54-41.69c-1.41-1.45-2.65-3-2.56-5.21,1-4.55.75-4.74-4.3-3.2-6.8-2.29-12.48-5.89-15.25-12.93a3.17,3.17,0,0,1,1.84-1.57c2.78-.91,2.79-2,.79-4.09-4.66-4.93-4.54-5-7.48,1.38a2.61,2.61,0,0,1-1.06,1c-2.09.85-3.83,0-5.65-1-12.6-6.93-25.72-12.52-39.77-15.82-2.17-.51-4.75-.71-5.77-3.36,1.31-3.73,1.31-3.73,4.66-3.93-6,0-14.22-1.85-22.59-1.6-2.75.08-4.79.52-6.33,2.77a4.07,4.07,0,0,1-2.74.37c-1.89-1.31-3.58-.46-5.26.51a7.14,7.14,0,0,1-5.16-.35c-2.29-2.94-5.17-4.52-8.43-3.82,1.72.33,5.27-1.2,4.72,3.49-.35.58-.77,1.28-1.39,1.35-6.63.8-13.13,3-19.94,2.07-1.84-1.14-1.91-2.52,0-4.66-4.36,2.73-8.28,3.79-12.6,1.77-1.46-.68-2.81,0-4.06,1.13-4.43,3.83-6.71,4-12.06,1.26-5-2.57-5.07-2.58-5.86,2.76a4.83,4.83,0,0,1-4,4.45c-4.93,1.28-5.17,1.83-3.9,6.9a4.68,4.68,0,0,1-2.78,3.78c-5.84,3.35-11.31,7.3-17,10.88-1.47.92-2.88,1.6-4.59.8-1.54-1.63-.67-3,.93-4.79-2.55,2.82-8.46,2.53-5.69,8.2.58,2.7-1.11,4.39-2.78,6-8.87,8.47-17.31,17.28-23.91,27.72-1.25,2-2.77,4.3-5.86,3.84-4.06-3.28.57-4.5,1.39-6.41-5.4,5.51-7.89,5.15-11-1.83-1.16,1.82.59,2.59,1.32,3.59,3.17,4.34,3.59,7.87.13,11.64-3,3.27-2.59,5.74.26,8.49,1.62,4.63-1.33,8.35-2.87,12.14-1.28,3.13-1,7.47-5.13,9.09-3.33-.13-2.85-3.3-4-5.79-.88,4,1.44,5.12,3.81,6.23,1.9,3.82-.09,6.75-2.19,9.67-3.66,1.47-5.14-1-6.3-3.68-2.82-6.49-4.67-13.33-7.11-20a47.18,47.18,0,0,0-3.69-7.39,6.1,6.1,0,0,1-.23-3.14"/><path class="cls-3" d="M1388.92-.06c47.66,0,95.32,0,143-.09,3.43,0,4.1.67,4.1,4.09q-.16,289.94-.1,579.88a5.62,5.62,0,0,1-5.37,1.84c-13-1.64-26-3.6-38.63-7.38a68.5,68.5,0,0,1-10.48-4.6,73.25,73.25,0,0,0-22.77-7.07c-6.24-.84-12.07,1.89-18.05,3.1-22.65,4.58-45.49,7.86-68.47,10.19-2.76.28-5.67.6-8.28-1-2-1.49-2-3.69-2.11-5.87-1.53-29.44-10.33-56.53-27.1-80.78a158.36,158.36,0,0,0-131.34-68.15c-6.14,0-12.25.88-18.37,1.45-2.24.21-4.29.29-6.27-.82-1.92-2.27-3.25-4.65-1.6-7.68a2.59,2.59,0,0,0,.16-2.41c-3.4-6.52-1.85-13.69-2.84-20.51-1.07-7.28-1.35-14.69-4-21.72-2.17-5.76-2.3-12-3.15-18.06-.88-6.27-1.78-12.46-4.22-18.25a47.14,47.14,0,0,1-3.31-13,78.84,78.84,0,0,0-4.54-18.16c-5-13.74-8.05-28.11-13.13-41.82-4.72-12.71-9.54-25.38-15.09-37.79-4.25-9.52-8.4-19.11-12.18-28.86-1.86-4.83-3.73-9.9-6.51-14.32-5.49-8.73-10.51-17.76-15.34-26.82-3.88-7.28-7.71-14.59-11.93-21.68-3.47-5.85-8-11-11.34-17-3.21-5.62-7-10.89-9.37-17-1.29-3.3-4-5.73-6.37-8.25-7-7.54-12.78-16.06-19-24.27-9.78-13-19.7-25.85-31-37.63C997.8,23.13,992.17,16.17,985.67,10c-2.54-2.43-5.91-5.4-4.7-10h112a9.33,9.33,0,0,1,3.16,4.35c6.42,15,16.77,26.14,31.15,34.24A83.73,83.73,0,0,0,1158.6,49c8.25,1,16.87.77,24.89-2.64a4.09,4.09,0,0,1,1.56.07c3.48.73,5.4,3.08,6.29,6.32a18.93,18.93,0,0,0,1.88,4,3.5,3.5,0,0,1,.23,1.5c-.4,12.73,6.14,23.15,11.57,33.85a124.82,124.82,0,0,0,20.83,29.52c5.29,5.57,11.61,9.74,17.47,14.54,6.49,5.32,14.62,7.68,21.56,12.17a14.15,14.15,0,0,0,7.66,1.8,127.28,127.28,0,0,0,55.3,8.42,123.87,123.87,0,0,0,38.72-8.92,135.85,135.85,0,0,0,44.5-29.6c4-4,7.31-8.63,10.64-13.2,2.34-3.21,2.79-6.77,1.46-10.85-2-6.12-4.63-12.15-4.59-18.81,0-3-2.46-5-3.44-7.65-3-8.1-6.39-16.05-8.61-24.43a4.41,4.41,0,0,0-.79-1.81c-4.45-5.15-5.4-11.28-5-17.77.17-3.06-.59-5.14-3.73-6.72C1392.49,16.56,1387.48,3.8,1388.92-.06Z"/><path class="cls-4" d="M841.05,410.86c5.29,6.82,7,15.21,10,23,1.13,2.92,1,6.74,4.91,7.95,2.19,2.41.68,4.95.09,7.33a18.48,18.48,0,0,0-.77,6.64c-1.75,6-4,7.36-9.7,5.94-27.81-7-53.38-1.77-76.66,14.68A88.24,88.24,0,0,0,736.84,518c-1.11,2.92-2.38,5.9-5.38,7.57-5.19,1.27-10.29-.26-15.38-.71-21.85-2-43.68-4.26-65.57-5.86A218,218,0,0,1,616,514l-16.12-2.06c-1.74-8-7.12-14-11.2-20.75-6.58-10.87-14.54-20.8-21.77-31.23-4-3.39-6.68-8.09-10.75-11.46-10.89-14.23-24.88-25.42-37.37-38.08-4.47-3-7.55-7.92-12.94-9.74-15.92-11.31-31.6-23-49.09-31.87a15.39,15.39,0,0,0-8.8-5.07C442.27,361,436.16,359,431,355.17c-21.08-8.71-42.41-16.76-64.69-21.76-19.14-4.3-38.36-8.14-58.15-8.54-9.1-.19-18.15-2.32-27.34-1.75-22.73,1.4-45.54,2.23-67.9,7a431.87,431.87,0,0,0-49,13.55c-19.79,6.73-38.52,15.51-56.94,25.21C86.71,379.53,68.18,392.59,50.41,407c-16.1,13-29.95,28.27-44.48,42.86-1.64,1.66-3,3.8-5.84,2v-9c2.43-2.54,3.88-5.8,6.24-8.4a5.21,5.21,0,0,0,1-3.77c-1.26-41.79-.19-83.6-.59-125.4-.06-6.08.82-12.19-2.17-18.1-1.76-3.48.68-6.76,3.05-9.44,1.77-2,3.3-4,3.73-6.84.54-3.6,3.33-5.76,6.54-6.94a8.49,8.49,0,0,0,5.22-4.86c2.54-5.57,6-10.4,12.57-11.83a4.87,4.87,0,0,0,3.75-3.68c1.59-6,6.05-9.38,11.27-11.86a10,10,0,0,0,5.5-5.41,15.68,15.68,0,0,1,5.1-6c3.36-2.68,6.79-3.25,10.43-.35,6.28,5,13.11,1.56,19.71,1,1.6-.13,2.09-2,2.18-3.57.16-3,.09-5.89-1.42-8.72-2.17-4-1-6.78,3.29-8.72,3.32-1.52,6.84-1.27,10.32-1.27q61.23-.06,122.45,0,32.49,0,65,0c3.81,0,7.66-.2,11.15,1.94,2.35,1.45,4.12,0,5.7-1.58,1.84-1.88,4.28-3.62,2.92-6.79-1.24-2.86-1.24-5.84-1.25-8.83q-.07-31.48,0-63a37.92,37.92,0,0,1,.17-4c.54-4.58,3.08-6.78,7.75-6.52,2.65.15,5.26.85,7.94.74,4.74-.2,9,.41,11.1,5.61.67,1.66,2.44,2.15,4.19,2.27,2,.14,4,.11,6,.11,31.65,0,63.31.26,95-.08,21-.23,41.94.91,62.9,1.4,7.68.18,16,.61,22.85,5.6,2.51,1.83,5.79,1.29,8.73,1.72s5.3,1.33,6.48,4c1.55,3.48,4.34,4.62,7.69,4.3,9-.85,15.53,5.07,23,8.39,2.08.93,3.85,2.72,6.32,2.58,9.48-.53,16.41,5.56,24.24,9.28,1.33.63,2.28,2,3.78,2.37,5.27,1.44,7.61,4.89,7.51,10.32-.07,3.52,2.13,5.2,5.46,5,9.8-.51,18.61,2.55,27.23,6.83,3.27,1.63,5.94,3.11,5,7.34-.43,2,.74,2.69,2.48,2.84,1.33.11,2.67,0,4,.16,5.52.6,10.28,2.35,12.77,8a12,12,0,0,0,8.56,7c3.57.86,6,3,8.28,5.95,3.33,4.29,6.7,8.56,11.82,11.2,3.7,1.92,5,6.45,8.37,9.1,6.38,5,11.75,11.13,17.08,17.22a20.1,20.1,0,0,0,8,5.68c4.57,1.83,5.92,4.19,4.72,9-.91,3.63.5,3.78,3.23,3,3.77-1.14,6.44.28,8.43,3.51,1.31,2.13,2.48,4.35,3.83,6.44,2.4,3.7,4.16,8.11,9.06,9.46a.8.8,0,0,1,.43.26c1.26,5.18,7.79,5.08,9.71,9.72.94,2.25,3.25.82,4.93,1.14"/><path class="cls-5" d="M616,514c14.27.37,28.44,2,42.65,3.24,22.8,2,45.59,4.23,68.39,6.33,1.64.15,3.3,0,5,0,2.21-1.45,4.6-1.39,7.15-1.15,22.27,2.05,44.5,4.42,66.74,6.78,7.41.78,14.88,1,22.2,2.53,30.31,2.58,60.5,6.32,90.73,9.58,37.2,4,74.37,8.25,111.55,12.46,27.26,3.08,54.5,6.32,81.76,9.42q38.91,4.43,77.84,8.6c21.49,2.27,42.94,5,64.43,7.3,11.23,1.22,22.46,2.74,33.79,2.81,4.6,3.06,10,2.47,15,2.82,22.38,1.58,44.63,4.51,67,6.47,19.2,1.69,38.37,3.68,57.56,5.41,18.2,1.63,36.42,3.07,54.62,4.55,11.41.93,22.82,2.39,34.3,2.36,5,0,9.91,1.22,14.91,1.17a5.47,5.47,0,0,1,4.32,2.14v140q-18.75-2.53-37.38-5.88c-22.37-4-44.85-7.37-67.27-11.11-18.35-3.07-36.65-6.46-55-9.38-19.19-3-38.27-6.73-57.42-10-10.77-1.83-21.55-4.15-32.32-6-19.2-3.25-38.15-7.58-57.11-11.81-12.94-2.88-25.92-5.63-38.71-9.25-9.54-2.71-19.41-4.26-29-6.78-19.77-5.18-39.45-10.69-59.18-16-13.47-3.64-27-7-40.43-10.83-20-5.63-39.89-11.54-59.84-17.28-15.64-4.5-31.34-8.82-47-13.42-20.23-6-40.4-12.16-60.62-18.19-16.7-5-33.46-9.72-50.12-14.79-20.5-6.24-40.94-12.7-61.4-19.08q-40.2-12.56-80.4-25.13c-22.32-7-44.7-13.87-66.87-21.41C629.27,518.24,622.48,516.64,616,514Z"/><path class="cls-6" d="M.09,451.84c5.85-4.63,10.56-10.41,15.82-15.63,9.76-9.69,19-19.94,29.85-28.46C55.43,400.18,64.61,392,75,385.36c13.45-8.59,26.88-17.1,41.25-24.19a369.13,369.13,0,0,1,34.59-15.47c17.11-6.36,34.46-12.15,52.44-15.86,9.11-1.88,18.17-3.92,27.41-5,9.56-1.11,19.13-2.16,28.72-2.89a218.6,218.6,0,0,1,24.39-1,480.16,480.16,0,0,1,59,5.26c22.11,3.52,43.52,9.64,64.53,17.1,8.41,3,17.05,5.66,24.71,10.53,4.34,40,1.48,80.13,2.23,120.19.08,4.08-2.1,7.66-2,11.77.22,7,2.22,9.58,9.11,9.65,4.68,0,8.62,2.28,12.93,3.35,3.82.95,7.38,1.83,10.86-1.05,1.95-1.6,4.43-1.18,6.71-.48,1.61.49,3.33,1.25,4.78.09,5.48-4.34,11.84-3.09,17.79-2.37a38.29,38.29,0,0,0,15.76-1.18c2.59-.76,5.24-1.23,6.42,1.72s-1,4.73-3.3,5.95a13.21,13.21,0,0,0-5.32,4.37c-13.84.53-27.62-.77-41.42-1.28-37.29-1.38-74.59-1.85-111.9-1.66-47.48.25-94.93,1.86-142.27,5.35-52.79,3.89-105.39,9.64-157.54,19.05-16.7,3-33.38,6.06-49.88,10a33.6,33.6,0,0,1-4.94.45Z"/><path class="cls-7" d="M1185,47.93h-1c-18,4.37-35.3,2-51.74-5.79C1116,34.44,1103.59,22.46,1096,5.92c-.85-1.85-2.56-3.67-1-6h294c1.3,5.95,6.18,10.25,7.48,16.23.37,1.68,2,1.39,3.34.88,2.35-.87,3.11.49,3.11,2.44,0,8.45.86,16.12,5.34,24.15,4,7.21,5.17,16.43,9,24.07,4.83,9.58,4.42,20.51,9.08,30.13,1.74,3.59-.75,8-3.29,11.49-11,15.23-25.28,26.6-41.5,35.85-23,13.13-48,17.33-74,15.55-12.22-.83-24.33-3.37-35.57-8.82-24.92-9.46-45.11-25-60-47.21a149.47,149.47,0,0,1-17.86-36.6c-1.09-3.34-.67-6.95-2.16-10.17h0c-1.06-1.78-.7-3.85-1.17-5.74C1190,49.25,1188.71,46.86,1185,47.93Z"/><path class="cls-8" d="M780,299.84c-3-2.42-6.9,1.69-9.83-1.24.63-2.11,3.28-1,4-3.11-2-1.91-4.27-1.92-6.74-.91a16.17,16.17,0,0,1-3.22,1.17c-.93.17-2.19.22-2.39-1.11-.14-1,.75-1.38,1.59-1.57,1.57-.37,3.76-.24,3.67-2.53s-2.36-2.45-4.11-2.88c-5-1.21-5.54-6.28-8.27-9.45a20.4,20.4,0,0,1-2.14-3.94c-2.3-4.33-4.55-8.5-10.36-3.88a3.17,3.17,0,0,1-4.49-.84c-1.08-1.48-.76-3.11,0-4.72,2.87-5.67,2.75-6.58-3.4-8.17-6-1.55-9.09-6.59-12-10.61-3.53-4.85-8.52-7.69-12.27-12.09-5.34-6.27-12.13-11.29-17.72-17.37-4-4.42-7.47-8.92-14-10-2.73-.45-5.34-3.28-5.88-6.3-1.14-6.35-5.66-7.13-10.72-7.37-3.31-.16-6.67.31-9.9-.84-.93-.33-2.14-.38-2.32-1.57s.93-1.59,1.69-2.22c3.47-2.91,3.32-4.58-1-6.06-9.2-3.19-18.15-7.23-28.38-6.46-5.92.45-7.08-1-6.8-7,.22-4.53-1.39-6.75-5.69-8.51-5-2-9.53-5.3-14.09-8.29a18.86,18.86,0,0,0-12.78-3.1c-3.15.32-5.42-1.51-8.13-2.76-7-3.24-13.12-9.19-21.82-8.3-4.6.48-8.59-.45-10-6-.74-3-3.64-3-6.21-3-4.1,0-8.46.81-11-3.82a2.72,2.72,0,0,0-2.19-1c-6.9.48-13.38-2.14-20.27-2.32-53.44-1.43-106.9-.69-160.35-.82-3.45,0-5.88-.7-6.51-4.46a3.18,3.18,0,0,0-.35-.93c-.9-1.76-15.42-4.58-18.71-3.45-3.89,1.33-2.91,4.83-2.92,7.66-.07,21.49,0,43,0,64.47,0,2.15-.62,4.8,1.07,6.23,4.1,3.46,1.45,5.55-1.05,7.9-1.33,1.25-2.66,2.53-3.88,3.89-2.31,2.58-4.39,4.75-7.3.44-1.26-1.86-3.8-1.82-6-1.82q-97.45,0-194.92,0a15.81,15.81,0,0,0-5.34,1c-3.19,1.16-5.2,2.36-2,6.31s1.44,8.95,1,13.52c-.13,1.44-1.68,1.92-3.1,2-4.8.36-9.6.74-14.4,1.06a9.65,9.65,0,0,1-6.91-2.34c-5-4-10.9-2.47-12.63,3.94-1.22,4.55-3.55,6.53-7.93,7.63-4.74,1.19-8.22,4.19-8.69,9.65-.28,3.42-2.25,5.83-5.66,5.94-6.62.21-9.49,4.4-10.83,9.88-1,3.94-2.73,5.93-6.88,6.59-3.29.52-6.82,1.95-4.3,6.76.83,1.58-.46,2.4-1.59,3.18a19.64,19.64,0,0,0-5.61,6.28c-.92,1.52-1.64,3.4-.36,4.64,3,2.89,2.32,6.42,2.32,9.84q0,62.47,0,124.94a44.74,44.74,0,0,0,.5,6.94c1,5.8-3.53,12.54-9.52,14.1v-163c2.37-7.41,9.34-11.05,13.94-16.62,5.46-6.62,11.84-12.52,18-18.52,7-6.81,13.81-13.92,21.15-20.42,6.68-5.91,13.25-12,20.65-17a68.58,68.58,0,0,0,8.06-6.53c7.23-6.71,15.72-11.55,23.73-17.1,16.94-11.75,35.36-21,53.22-31.26,8.4-4.81,17.56-7.68,26.12-12a249,249,0,0,1,33.59-13.54c8.12-2.71,16.33-5.5,24.66-7.56,11.42-2.81,22.67-6.23,34.17-8.71,21.89-4.73,43.95-8.59,66.23-10.4a426.52,426.52,0,0,1,47.86-1c10.93.34,21.9,0,32.8,1.25,8.85,1,17.63,2.81,26.47,3.7s17.47,2,26,3.66c12.31,2.34,24.55,5.4,36.68,8.76,14,3.88,27.78,8.42,41.53,13a292.75,292.75,0,0,1,33.56,13.3c7.32,3.53,15,6.47,21.94,11.29,7.39,5.14,16.34,8,24,13s16,9.51,23.19,15.4a15.55,15.55,0,0,0,2.38,1.81c18.88,10.09,34.29,24.7,50.53,38.31,9.28,7.78,18,16.14,26.59,24.57a233.6,233.6,0,0,1,18.42,20.15c7.38,9.22,16,17.35,23.27,26.66C780.22,295.82,781.72,297.5,780,299.84Z"/><path class="cls-9" d="M1535.9,606.81c-19.1-.41-38.11-2.15-57.14-3.74-13.06-1.09-26.14-2.12-39.2-3.24-16-1.38-32.08-2.75-48.1-4.26s-32-3.15-48.06-4.76c-17-1.71-34-3.42-51-5.23a21.62,21.62,0,0,1-4.67-1.58,3.37,3.37,0,0,1,3.08-1.82c7.9-2.43,16.15-1.65,24.22-2.46,12.69-1.27,25.47-1.76,38.18-3,3.58-.34,7.31-.93,10.72,1,16-.39,31.79-2.93,47.57-5.29,13.66-2,27.17-4.8,40.65-7.81,9.34-2.09,18.37,1,26.45,5.18,18,9.44,37.65,11.6,57.31,13.94Z"/><path class="cls-10" d="M770.87,287.51c-13.14-15.88-26.63-31.5-41.58-45.7-17.21-16.36-35-32-54.3-46A501,501,0,0,0,618.66,160a482,482,0,0,0-83.93-35.5,514.93,514.93,0,0,0-74.16-17.77c-14.36-2.31-28.86-3.78-43.4-4.94-17.82-1.42-35.62-1-53.4-.67a345.87,345.87,0,0,0-57,5.41c-15.35,2.83-30.58,6-45.77,9.78a518.45,518.45,0,0,0-59.73,18.91c-33.11,12.6-63.9,29.48-93.52,48.79C73.11,206.58,43,234.42,14.47,264.06,9.53,269.19,4.88,274.6.09,279.88v-8c5.47.85,8.27-3.67,10.73-6.75,3.46-4.34,7.61-7.83,11.32-11.82,12-13,24.85-25.19,38.09-36.93,6.14-5.45,12.9-10.2,19.38-15.27.13-.1.33-.13.43-.25,8-9.36,19.38-14,28.93-21.19,8.8-6.64,18.87-11.12,28.34-16.64,6.45-3.75,13.11-7.14,19.66-10.72.87-.47,2.28-1,2.37-1.7.75-5.64,4.9-4,8.53-4.88,8.52-2.1,16.37-6.26,24.28-10.12,5.36-2.61,11-4.64,16.62-6.74,18.62-7,38-11.5,57-17.12,11.07-3.28,22.84-4.1,34.08-6.88,9.45-2.34,19-3,28.57-4a3.62,3.62,0,0,0,1.47-.21c7.32-4.68,15.42-2.87,23.26-2.67a230.91,230.91,0,0,0,24.4-1.12c8.72-.7,17.42.44,26.21-.05a82.85,82.85,0,0,1,27.53,2.84c7.46,2.2,15.13,1.93,22.63,3.28,7.79,1.4,16.16.91,23.41,2.89,12.11,3.3,24.43,5.78,36.5,9.32,13.55,4,27,8.24,40.4,12.67a10.55,10.55,0,0,0,4.44.21c2.11-.2,3.49,0,5.18,2.31,2.53,3.38,7,4.89,11.38,5.42,2.83.35,5.56,2,7.89,2.13,9.53.54,14.13,11.64,24.09,10.58a1.05,1.05,0,0,1,.83.47c3.91,7.93,12.61,8.21,19.08,12.06,5.64,3.35,11.07,7.43,16.65,10.42,8.55,4.58,14.74,12.6,24.87,15.12,5.21,1.3,9.3,7.09,13.9,10.85,3.38,2.77,6.43,6.72,12.13,2.72-4.72,6.67,2.41,7.49,4.3,10.79a3.77,3.77,0,0,1,5,2c.66,1,1.33,2,2,3a10.83,10.83,0,0,1,6,6l5,3a1.08,1.08,0,0,1,1,1c4.24,4.43,7.44,9.89,13,13,1.55,1.12,3.89,1.45,4,4a32.23,32.23,0,0,0,4.68,2.62c1.66.63,2.61.74,2.09,3.24-.79,3.72,3.83,4.45,5.23,7.14,2.74.59,4.64,2,5,5l4,5a1.08,1.08,0,0,1,1,1l4,5c3.47.53,5.15,2.85,6,6,5,6.67,12.56,10.74,18,17,3-.15,6-1.31,9,0h4c4.67-.12,9.39.49,13.65-2.47,1.85-1.28,3.67.5,5.34,1.44h2c2-.37,4-1.62,6-.12.21,2.57-1.74,2.95-3.52,3.3-10.46,2.08-21.06,3.18-31.58,4.83a4.43,4.43,0,0,1-4.82-1.89"/><path class="cls-11" d="M981-.06c1.22,3.59,3.83,6.28,6.39,8.77,15,14.48,27.87,30.7,41.1,46.69,10.38,12.55,19.51,26,29.66,38.69,6.4,8,11.06,17.39,16.5,26.16,4.73,7.62,9.6,15.15,14.14,22.88q8.06,13.76,15.6,27.78c4.11,7.58,8.23,15.17,11.73,23,2.42,5.45,4.68,11,7,16.49,11.37,26.93,22.55,53.85,30.38,82.19q9.43,34.19,17.07,68.7c3.86,17.53,5.49,35.42,8.16,53.13.45,3-.64,6.24.26,9.35a4.37,4.37,0,0,1-1.73,2.55c-1.56.84-3,1-4.28-.58,0-.33,0-.77-.14-1-3-3.52-6.1-7,1.73-8.33.93-.16.88-1.41.1-2-4.4-3.32-2.62-7.88-2.25-12a44.31,44.31,0,0,0,.5-7.44c-.16-2.18.23-5.27-3.78-3.59a1.2,1.2,0,0,1-1.63-.72c-.13-.56,0-1.61.38-1.79,7.89-4.05,2.61-9.87,1.16-14.18-2.47-7.36-2.36-14.88-3.59-22.29-1-6-.16-12.66-7.36-16.72-4.31-2.43-2.43-8.3-1.53-12.52a20.58,20.58,0,0,0-4.56-18.36c-.62-.76-1.78-1.62-1.7-2.32,1.23-10.48-7.27-18.19-7.88-28.37-.29-4.76-3.85-9.42-3.65-14.76,0-.43-.35-1.22-.64-1.27-5.82-1-3.79-5.59-4.17-9.05-.46-4.18-1.2-7.87-6.55-8.51-3.1-.37-3.56-3.16-3.41-5.82.22-4.08-.39-7.7-3-11.23a14,14,0,0,1-2.22-10c.31-2.51-.18-4.92-3.32-5-2-.08-4.29,1-5.09-1.64s-1.36-5.68.49-7.68c2.66-2.89,1.46-4.61-.75-6.61a5.67,5.67,0,0,1-2.13-4.35c0-5.31-3.47-8.79-7.29-11.14-4.21-2.59-5.79-5.89-5.38-10.27.26-2.74-.76-3.9-3-4.94-6.27-2.89-7.29-4.47-6.17-11.16.75-4.47,0-7.79-4.21-10.05-3-1.61-2-5.36-3.83-7.83s-3.15-3.88-6.27-4c-4.5-.16-7.53-1.68-8.13-7.3-.8-7.37-3.71-14.41-5.49-21.64-1-4.19-5.15-8.13-10-9.83A16,16,0,0,1,1040,84c-.09-.14-.15-.34-.28-.41-6.36-3.69-9.36-9.35-10.16-16.53-.21-2-2.39-2-4.07-2.13-2.83-.22-3.81-2.07-3.4-4.5,1.54-9.11-4.85-13.74-10.6-18.5-1.86-1.54-4.52-1.89-4.34-5.16a2.92,2.92,0,0,0-2.08-2.63c-3.68-1.22-6.53-3-6.93-7.39-.09-1-1.25-1.6-2.3-1.63-3.51-.08-5.64-1.6-6.06-5.26a2,2,0,0,0-2.15-1.75c-4.68-.11-6-2.93-5.65-7,.39-4.66-3.59-7.3-5-11.13Z"/><path class="cls-11" d="M1095-.06c1.32,7.48,5.67,13.67,10.15,19.2a79.17,79.17,0,0,0,35.63,25.28c14.37,5.14,28.62,4.72,43.21,3.52-10.41,4-21.13,3.8-31.79,1.73-21.29-4.15-38.54-15-51.27-32.61A48.86,48.86,0,0,1,1093-.06Z"/><path class="cls-12" d="M508,505.88c-2.47-3-1.59-4.71,2-5.55a7.48,7.48,0,0,0,2.32-.88c1.32-.85,3.74-1.44,3-3.34-.84-2.19-2.69-.56-4.2-.11-5.58,1.64-11.12,2.65-17.08,1.28-3.8-.88-9.23-1.92-11.65,0-4.95,3.91-9.22,3.67-14.31,1.71a2.14,2.14,0,0,0-1.89.42c-4.4,4.64-9,2.1-13.64.56a38.13,38.13,0,0,0-14.19-2.18c-4.9.27-7.4-3.2-8.1-7.2s-1-8.3,1-12.26c1-2,.79-4.22.79-6.38q0-48.15,0-96.3c0-5.67-2.72-10.91-2.29-16.67.16-2.16.31-3.92,2.27-5.1l17,8c2.95,1.74,5.65,3.94,9,5,17.46,8.94,33.23,20.48,49,32,3.57,2.88,7.42,5.57,7.45,10.77,2.19.21,3.68-1.56,5.54-.77,13.15,12.18,26.54,24.13,38,38,.65,4.54,6.08,7.14,4.76,12.37,2,.87,3.47-1.57,5.24-.37,7.54,8.17,13.56,17.49,19.73,26.67,4.33,6.45,8.43,13.07,12.38,19.76,1.17,2,3.72,4.57-.21,6.64-13.32.43-26.46-2-39.73-2.48-8.79-.3-17.55-1.23-26.33-1.88-3.2-.75-6.55.45-9.72-.72C518.74,507,513.35,507.15,508,505.88Z"/><path class="cls-4" d="M524.14,506.84c3.24.2,6.57-.66,9.72.72C530.58,507.86,527.3,508.1,524.14,506.84Z"/><path class="cls-13" d="M1173,425.78a6.7,6.7,0,0,0,4-.95c2.91-.19,4.44,1.43,4.56,4.1.68,15.41,3.1,30.73,2.48,46.21-.12,3,.55,5.94.89,8.91.39,3.42,1,6.95-.77,10.25-2.9,2.18-4-.14-5.37-2.09-3.42-4.9-6.22-10.2-9.88-15-17.9-23.41-40.94-38.91-69.45-46.69-29.58-8.07-58.24-5.22-85.7,7.33-28.35,13-49.53,33.8-62.64,62.41-1.17,2.56-2.42,5.07-3.44,7.73-1.9,5-4.71,6.29-9.83,5a126,126,0,0,0-59.31-.92c-2.29.51-4.57,1.13-6.79-.23-4.59-5-4.07-11.69-5.7-17.64-3.07-11.16-5.05-22.6-8.22-33.76-.76-2.67-2.69-3.56-4.74-4.6a39.46,39.46,0,0,1,2.93-14c-.3-3.52,2.41-6.43,2.06-10v0a167.67,167.67,0,0,0,8-21c.48-6.73,3-12.31,9-15.93,7-8.13,12.23-17.68,20.2-25.06,4.12-3.81,7.91-8,11.85-12,.29-3,2.1-4.09,4.9-4,4.45-2.88,8.86-5.8,13.35-8.62,3.5-2.21,7.08-4.29,10.63-6.43.29-2.51,2.16-3.64,4.16-4.5,11.08-4.81,22.13-9.67,34.28-11.26,1.37-.18,2.59-.54,3.59.72l22-2.9c1.3-1.36,2.63-1.08,4-.07h6a2.86,2.86,0,0,1,4,0h3a4.74,4.74,0,0,1,3.91-1.82c5.88.69,11.88.48,17.59,2.39,1.43.48,2.86.89,3.5,2.46,9.6,3,19.57,4.93,28.76,9.16,7.49,3.44,14.82,7.22,22.22,10.85,3.08-.29,5.36.59,5.94,4L1114,359.82c2.69.08,4.67,1,4.89,4.07,8.12,9.16,16.81,17.85,23.11,28.46,3.53,6,7.65,11.59,10.33,18a6.78,6.78,0,0,0,2.61,3.53c2.72,1.69,3.8,3.89,2.1,6.92a27.61,27.61,0,0,1,.89,3.29c.54,3.69,2.31,5,6.12,4C1167,427.35,1169.7,425.46,1173,425.78Z"/><path class="cls-11" d="M978,323.82a201.57,201.57,0,0,0-42,15c-1.84-.58-4.93-1.18-3.17-3.55,1.63-2.21,1.81-7.49,6.89-5.46,2.66,1.07,3-.2,2.65-2.25-.29-1.68-.5-3.33.32-4.87,1.55-2.92,3.52-4.73,6.46-1.51,1.55,1.69,3.54,2.37,5.6,3,2.44.82,4.42.83,5.81-2,1-1.95,2.74-4,5.13-2.57,4.77,2.91,9.19.94,13.75-.21.94-.23,1.9-.4,3.85-.81C981.33,321.14,978.85,321.73,978,323.82Z"/><path class="cls-11" d="M875,394.93c-2.9,5.37-5.37,11-9,15.93-1.33-.05-3.3,1.43-3.76-.84-.5-2.52-1-5.27,1-7.58,5.06-5.83,5.05-5.95.13-11.42a6.19,6.19,0,0,1-1.12-6.09c.35-1.32,1.17-2.51,2.74-2.45s2.26,1.26,2.67,2.58c.72,2.24-.73,5.87,3.66,5.72,3.78-.13,4.74-3.07,5.79-5.92.33-.88.49-2,2.25-2.22a13.61,13.61,0,0,1-3.26,7.48C874.81,391.57,873.82,393,875,394.93Z"/><path class="cls-11" d="M1077.71,333.86c-5.26-.58-10-3.65-14.17-7.46-2-1.83.48-3.95,1-5.86.56-2.16,2.67-2.73,4.84-2.58s2.54,1.75,2.67,3.5c.2,2.5,1.77,3.4,4,3.38a6.59,6.59,0,0,1,5.37,2.06,4.62,4.62,0,0,1,1.12,5C1081.79,333.81,1080,333.82,1077.71,333.86Z"/><path class="cls-11" d="M1157,420.85c-.61-2.34-2.54-4.27-2.1-6.92a41.3,41.3,0,0,1-1.61-5.22,2.83,2.83,0,0,1,2.12-3.48c1.75-.44,2.22.9,2.65,2.25a12.32,12.32,0,0,0,1.18,2.74c.58,1,1.26,2.13,2.65,1.89s1.6-1.56,1.86-2.68c.55-2.4-.21-6.5,3.62-5.67,3.4.73,1.64,4.59,1.46,7C1168.37,417.18,1163.4,421.24,1157,420.85Z"/><path class="cls-11" d="M1042,323.87l-25-3c.12-3.08,2.24-3.86,4.75-3.9,7.91-.13,15.84-.41,23.56,2,2.44.77,5.33-.61,7.55,1.51,1,.93,2.28,1.85,1.22,3.28s-2.26.72-3.35-.31C1047.67,320.57,1044.76,321.35,1042,323.87Z"/><path class="cls-11" d="M1098.89,347.89c-2.06-1.22-4.55-1.8-5.94-4-2-3.61-.29-6.06,2.77-7.75,3.3-1.83,4.22,1.13,5.54,3.12a3.1,3.1,0,0,0,.64.75c2.5,1.77,5.24,3.8,3.66,7.18C1104.1,350.28,1101.09,347.05,1098.89,347.89Z"/><path class="cls-11" d="M841.09,407.82q0-18.49-.05-37c2.32-.73,4.62.16,6.93.15a2.38,2.38,0,0,1,2.58,1.93,2.27,2.27,0,0,1-2.12,2.84c-5.7.4-6.47,3.69-6.26,8.66.22,5.46-.65,10.95.54,16.39A7.28,7.28,0,0,1,841.09,407.82Z"/><path class="cls-11" d="M817,293.85c-3.79-.63-7.07,1.6-10.67,1.93-2.79.26-5.66.47-8.32-.9,1.41-1.17,3.11-.9,4.75-1,3.4-.26,6.55-.77,7.82-4.77.73-2.32,2.85-3.12,5.16-3.14,1.61,0,3.67-.49,4.42,1.37.84,2.11-1.32,2.18-2.57,2.77C815.51,291,816.47,292.48,817,293.85Z"/><path class="cls-11" d="M1139.8,382.61c3.45,3.69,5.47,4.06,7.62.33,1.12-1.93,4.09-1.66,5.65.2s1,4.14-.89,5.7C1147.4,392.73,1141.81,390.59,1139.8,382.61Z"/><path class="cls-11" d="M912,353.91c-1.09,2-3,3-4.9,4l-3.7,1c.47-4.57,1.33-8.46,6.58-9.57,1.79-.37,3.42-1.12,4.11-3.14.53-1.55,1.67-2.15,3-.9,1.09,1,.65,2.25-.39,3C914.57,349.72,913.32,351.84,912,353.91Z"/><path class="cls-11" d="M735,242.89a4.54,4.54,0,0,1-4-4c3.24-.31,6.47-.74,9.71-.87,1.64-.07,3.65.36,3.78,2.39.14,2.23-1.88,2.37-3.55,2.44C739,242.93,737,242.88,735,242.89Z"/><path class="cls-11" d="M891.79,369.51c-.47,1.95-1.25,3.81-3.21,4.74s-2.54-.83-3.52-1.91a5.17,5.17,0,0,0-2-1.33c-1.22-.43-3-.39-2.54-2.28s2.18-1.91,3.67-1.18a5.33,5.33,0,0,0,5.19-.05C891,366.65,891.78,367.79,891.79,369.51Z"/><path class="cls-11" d="M858,431.85c-2.29,1.75-4.1,2.1-4.93-1.42-.48-2.05-1.25-4-1.88-6,1.24-1.41,2.21,1.63,3.44,0,.67-.91,1.29-2.89,2.91-1.38a3.6,3.6,0,0,1,.69,4.15c-.7,1.56-1.22,3.08-.23,4.7Z"/><path class="cls-11" d="M1118.87,363.89c-1.92-1-3.85-2-4.89-4.07,1-2.33,2.64-3.35,5.13-2.76,1.76.42,2.14,2,2.45,3.44C1122,362.61,1120.73,363.52,1118.87,363.89Z"/><path class="cls-11" d="M767,277.88c-3.44-.56-4.22-3.78-6-6,2.51-1.34,5.16-1.95,7.06.68C769.33,274.33,769.85,276.61,767,277.88Z"/><path class="cls-11" d="M752,260.89c-2.22-1.12-4.57-2.09-5-5,1.43-2.77,3.8-2.64,5.54-.93S755.16,259.19,752,260.89Z"/><path class="cls-11" d="M794,294.88c-3,.48-6,4.17-9,0C786.36,290.19,789,290.19,794,294.88Z"/><path class="cls-11" d="M712,221.9a8.33,8.33,0,0,1-6-6c3.56-2.48,4.42,1.26,6.18,2.76C713.3,219.61,714.54,221,712,221.9Z"/><path class="cls-11" d="M704,212.9a6.55,6.55,0,0,1-5-2c1-2.67,3.11-3.65,5.48-2.35S705.2,211.54,704,212.9Z"/><path class="cls-11" d="M1004,320.85l-4,.07c-2.33-3.51-6.19-1.22-9.15-3,3.47,0,6.94,0,10.4,0C1003.11,318,1003.86,319.13,1004,320.85Z"/><path class="cls-11" d="M757,266.89l-1-1c.13-1.65.57-3,2.66-2.72,1.06.17,2,.83,1.86,2C760.26,267.33,758.37,266.67,757,266.89Z"/><path class="cls-11" d="M1130,367.2c1.53.14,1.86,1.18,1.77,2.46s-.69,2-1.89,1.76a2.37,2.37,0,0,1-2-2.51C1127.94,367.62,1129,367.42,1130,367.2Z"/><path class="cls-11" d="M861.19,415.88c-.27,1-.81,1.9-1.91,2s-1.22-.88-1-1.72c.21-1.06.81-1.83,2-1.7C861,414.51,861.28,415.12,861.19,415.88Z"/><path class="cls-11" d="M718,225.9l-1-1c.54-1.52,1.38-2.34,2.8-.91.67.68,1.43,1.77.7,2.58S718.85,226.15,718,225.9Z"/><path class="cls-11" d="M796.16,287.13c.68.11,1.33.38,1.34,1.14a1.13,1.13,0,0,1-1.62,1.15,1.94,1.94,0,0,1-1.09-1.34C794.71,287.28,795.47,287.13,796.16,287.13Z"/><path class="cls-11" d="M1014,320.84h-4c.3-1.32.76-2.64,2.39-2.56S1013.84,319.72,1014,320.84Z"/><path class="cls-14" d="M1182.94,494.84c-1.39-20.72-1.27-41.53-3.8-62.18-.33-2.7,1.77-6.15-2.21-7.83l2-1c8.94-.65,17.87-1.84,26.81-1.85A154.56,154.56,0,0,1,1289.4,446c30.73,19.2,52.3,45.88,65.12,79.53a140.64,140.64,0,0,1,9.4,52.23c-4.05,2.07-8.49,1-12.72,1.37-20.07,1.69-40.17,3-60.26,4.44a13.31,13.31,0,0,1-4.06-4.9c-8.32-17-21.41-28.68-38.84-35.94-15-6.25-30.26-6.43-45.91-3.63-6.34,1.13-8.47-.7-9.36-7-1.5-10.6-5.17-20.54-9.33-30.32C1182.45,499.52,1181.16,497.31,1182.94,494.84Z"/><path class="cls-11" d="M1191.94,57.93c3.31,4.8,3.36,10.7,5.43,15.94,9.12,23.15,22.45,43.19,42.11,58.79a128.68,128.68,0,0,0,27.32,16.23,55.12,55.12,0,0,1,5.13,3,17.31,17.31,0,0,1-8.11-2.11,149.11,149.11,0,0,1-35.52-23.43,104.27,104.27,0,0,1-16-19,165.66,165.66,0,0,1-18-34.85A33.6,33.6,0,0,1,1191.94,57.93Z"/><path class="cls-11" d="M1185,47.93c3.1-3,4.91-1.18,6.28,1.76,1.21,2.63.57,5.49.71,8.24C1189.1,55,1190.24,49.19,1185,47.93Z"/><path class="cls-15" d="M853,455.84c1.45-4.11,3.17-4.1,5.08-.31,2.95,5.83,4.08,12.24,5.6,18.49,3,12.23,5.55,24.55,8.28,36.83.41,2.58-1.72,3.06-3.32,3.56a137.57,137.57,0,0,0-33.88,16.28c-2.12,1.38-4.7,1.59-6.84,2.87l-95.9-10c5.53-16.15,14-30.44,26.76-41.95,16.42-14.86,35.56-23.51,57.85-24.79,10.67-.61,21.16-.13,31.41,3.37C851.68,461.43,852.7,458.82,853,455.84Z"/><path class="cls-6" d="M568,458.85c-2.53.9-2.38,6.17-6.17,4.42-3.53-1.63-.85-5-1-7.61-.18-3.16-3.46-5.36-2.82-8.81C560.48,451.58,565.18,454.44,568,458.85Z"/><path class="cls-6" d="M520,408.86a6.33,6.33,0,0,0-2.91,3.25c-.42,1.07-.84,2.36-2.32,2.11a2.92,2.92,0,0,1-2.56-3.19c.64-5.14-1.89-8.79-5.2-12.17C512,401.36,515.74,405.47,520,408.86Z"/><path class="cls-8" d="M184,325c-2.15-.58-5.89,1-5.91-1.92,0-3.42,3.81-2.06,6-2.07s6.11-1.3,6,2S186.06,324.29,184,325Z"/><path class="cls-8" d="M210.43,324.3a1.49,1.49,0,0,1-1.5-1.53c-.08-1.25.86-1.66,1.86-1.69s2,.34,1.77,1.64C212.37,323.79,211.46,324.19,210.43,324.3Z"/><path class="cls-8" d="M20.46,418.56c-.28,1.19-.9,2.21-2.17,2.26-1.07.05-1.15-1-1.07-1.78.1-1,.59-1.88,1.78-1.92C19.93,417.09,20.54,417.5,20.46,418.56Z"/><path class="cls-6" d="M458,366.86c-3.79-.24-6.57-2.29-9-5C452.52,362.66,455.2,364.89,458,366.86Z"/><path class="cls-8" d="M35,404.11c-1.14.13-1.63-.34-1.48-1.05a2.25,2.25,0,0,1,1.08-1.44c.73-.3,1.26.31,1.15,1A4.82,4.82,0,0,1,35,404.11Z"/><path class="cls-16" d="M827.94,533.56c6.22-6.7,14.6-10.06,22.38-14.29,6.85-3.73,14.37-5.8,21.66-8.42,12.89-2.62,25.83-4.57,39.07-4.06a106.5,106.5,0,0,1,27,4.07c4.37,1.33,6.16-.11,7.51-3.72a110.07,110.07,0,0,1,14.35-27.24c12.5-16.94,27.39-31,46.29-40.88A129.49,129.49,0,0,1,1072,424a126.63,126.63,0,0,1,54.45,14.46,136.22,136.22,0,0,1,39,30.63A94.65,94.65,0,0,1,1181.32,493a8.43,8.43,0,0,0,1.62,1.84c5.58,12.6,10.86,25.28,12.35,39.19.33,3.09,2.07,3.9,5.3,3.24,12-2.47,24-3.52,36-.53,14.11,3.5,26.65,9.63,37.15,20.13,6.93,6.92,12.68,14.34,16.34,23.38a23.56,23.56,0,0,1,.83,3.36l-3.22.39c-23.68-.3-47-4.37-70.48-6.73-31-3.1-61.84-6.84-92.74-10.36-34.55-3.94-69.08-8-103.62-11.9q-54.79-6.22-109.61-12.27Q869.62,538.11,827.94,533.56Z"/><path class="cls-6" d="M456.49,498c-2.18-.81-6,1.29-6.25-2-.18-1.92,3.85-1.78,6-2,2.38-.21,6.66-1.55,6.78,1.65C463.12,499.26,458.78,497.13,456.49,498Z"/></svg>