<svg id="Слой_1" data-name="Слой 1" xmlns="http://www.w3.org/2000/svg" width="500" height="500" viewBox="0 0 500 500">
  <defs>
    <style>
      .cls-1 {
        fill: #68b42e;
      }
    </style>
  </defs>
  <title>person-icon</title>
  <g>
    <path class="cls-1" d="M262.86,498c-71.76-1.12-126.61-5.63-178.67-25.57C67,465.84,51,455.33,35.69,444.74c-11.13-7.71-14.4-20.32-13.37-34.25,5.43-73.38,53.35-131.42,123-147.41,5.82-1.33,13.59,0,18.82,2.95,55.49,31.45,110.5,31.44,165.79-.41,4.59-2.64,11.26-4.22,16.3-3.15,71.11,15,123.36,78.71,125.14,151.42.45,18.29-9.75,30-23.47,39.46-29.79,20.51-64,29.75-98.9,35.21C315.1,493.86,280.74,496.12,262.86,498Z"/>
    <path class="cls-1" d="M250.23,258.86c-34.78-.41-59.65-13.73-80.76-35C120.8,174.71,112.64,101,150.18,50.7a120.07,120.07,0,0,1,150.15-36c53.34,26.68,79.18,86.7,60.87,145.54-14.54,46.71-42.66,81.83-91.91,95.75C261.89,258.06,254,258.32,250.23,258.86Z"/>
  </g>
</svg>
