<?xml version="1.0" encoding="UTF-8" standalone="no"?>
<!-- Created with Inkscape (http://www.inkscape.org/) -->

<svg
   xmlns:dc="http://purl.org/dc/elements/1.1/"
   xmlns:cc="http://creativecommons.org/ns#"
   xmlns:rdf="http://www.w3.org/1999/02/22-rdf-syntax-ns#"
   xmlns:svg="http://www.w3.org/2000/svg"
   xmlns="http://www.w3.org/2000/svg"
   xmlns:sodipodi="http://sodipodi.sourceforge.net/DTD/sodipodi-0.dtd"
   xmlns:inkscape="http://www.inkscape.org/namespaces/inkscape"
   width="19.388645mm"
   height="14.16754mm"
   viewBox="0 0 68.699924 50.199943"
   id="svg3618"
   version="1.1"
   inkscape:version="0.91 r13725"
   sodipodi:docname="Video.svg">
  <defs
     id="defs3620">
    <linearGradient
       gradientTransform="matrix(0.0036,0.0132,0.0039,-0.001,130.46429,93.026491)"
       gradientUnits="userSpaceOnUse"
       id="gradient3"
       spreadMethod="pad"
       x1="-819.20001"
       x2="819.20001">
      <stop
         offset="0.0"
         stop-color="#0066cc"
         id="stop120" />
      <stop
         offset="0.4980392156862745"
         stop-color="#0099ff"
         id="stop122" />
      <stop
         offset="1.0"
         stop-color="#ccffff"
         id="stop124" />
    </linearGradient>
    <linearGradient
       gradientTransform="matrix(0.0037,0.0137,0.0098,-0.0026,115.61429,95.976491)"
       gradientUnits="userSpaceOnUse"
       id="gradient2"
       spreadMethod="pad"
       x1="-819.20001"
       x2="819.20001">
      <stop
         offset="0.0"
         stop-color="#0066cc"
         id="stop113" />
      <stop
         offset="0.4980392156862745"
         stop-color="#0099ff"
         id="stop115" />
      <stop
         offset="1.0"
         stop-color="#ccffff"
         id="stop117" />
    </linearGradient>
    <linearGradient
       gradientTransform="matrix(0.0037,0.0137,0.0099,-0.0027,95.864285,99.876491)"
       gradientUnits="userSpaceOnUse"
       id="gradient1"
       spreadMethod="pad"
       x1="-819.20001"
       x2="819.20001">
      <stop
         offset="0.0"
         stop-color="#0066cc"
         id="stop106" />
      <stop
         offset="0.4980392156862745"
         stop-color="#0099ff"
         id="stop108" />
      <stop
         offset="1.0"
         stop-color="#ccffff"
         id="stop110" />
    </linearGradient>
    <linearGradient
       gradientTransform="matrix(0.0036,0.0134,0.004,-0.0011,81.014286,102.87649)"
       gradientUnits="userSpaceOnUse"
       id="gradient0"
       spreadMethod="pad"
       x1="-819.20001"
       x2="819.20001">
      <stop
         offset="0.0"
         stop-color="#0066cc"
         id="stop99" />
      <stop
         offset="0.4980392156862745"
         stop-color="#0099ff"
         id="stop101" />
      <stop
         offset="1.0"
         stop-color="#ccffff"
         id="stop103" />
    </linearGradient>
  </defs>
  <sodipodi:namedview
     id="base"
     pagecolor="#ffffff"
     bordercolor="#666666"
     borderopacity="1.0"
     inkscape:pageopacity="0.0"
     inkscape:pageshadow="2"
     inkscape:zoom="11.2"
     inkscape:cx="46.403367"
     inkscape:cy="32.599588"
     inkscape:document-units="px"
     inkscape:current-layer="layer1"
     showgrid="false"
     fit-margin-top="0"
     fit-margin-left="0"
     fit-margin-right="0"
     fit-margin-bottom="0"
     inkscape:window-width="1920"
     inkscape:window-height="1033"
     inkscape:window-x="-4"
     inkscape:window-y="-4"
     inkscape:window-maximized="1" />
  <metadata
     id="metadata3623">
    <rdf:RDF>
      <cc:Work
         rdf:about="">
        <dc:format>image/svg+xml</dc:format>
        <dc:type
           rdf:resource="http://purl.org/dc/dcmitype/StillImage" />
        <dc:title></dc:title>
      </cc:Work>
    </rdf:RDF>
  </metadata>
  <g
     inkscape:label="Layer 1"
     inkscape:groupmode="layer"
     id="layer1"
     transform="translate(-71.364326,-72.976518)">
    <path
       style="fill:#000000;fill-rule:evenodd;stroke:none"
       inkscape:connector-curvature="0"
       id="path6"
       d="m 73.014286,85.576491 55.900004,-10.95 9.5,35.449999 -55.800004,11.45 -9.6,-35.949999" />
    <path
       style="fill:none;stroke:#000000;stroke-width:3.29999995;stroke-linecap:round;stroke-linejoin:round"
       inkscape:connector-curvature="0"
       id="path8"
       d="m 73.014286,85.576491 55.900004,-10.95 9.5,35.449999 -55.800004,11.45 -9.6,-35.949999 z" />
    <path
       style="fill:#000000;fill-rule:evenodd;stroke:none"
       inkscape:connector-curvature="0"
       id="path10"
       d="m 138.46429,110.07649 -55.800004,11.5 -9.6,-35.999999 55.900004,-10.95 9.5,35.449999" />
    <path
       inkscape:connector-curvature="0"
       style="fill:url(#gradient0);fill-rule:evenodd;stroke:none"
       id="path12"
       d="m 81.464286,91.426491 -6.65,1.35 5.75,21.549999 6.649999,-1.4 -5.749999,-21.499999" />
    <path
       inkscape:connector-curvature="0"
       style="fill:url(#gradient1);fill-rule:evenodd;stroke:none"
       id="path14"
       d="m 101.36429,87.476491 -16.550005,3.3 5.75,21.499999 16.550005,-3.35 -5.75,-21.449999" />
    <path
       inkscape:connector-curvature="0"
       style="fill:url(#gradient2);fill-rule:evenodd;stroke:none"
       id="path16"
       d="m 126.71429,104.92649 -5.7,-21.299999 -16.35,3.2 5.7,21.399999 16.35,-3.3" />
    <path
       inkscape:connector-curvature="0"
       style="fill:url(#gradient3);fill-rule:evenodd;stroke:none"
       id="path18"
       d="m 130.86429,81.726491 5.7,21.199999 -6.5,1.4 -5.65,-21.299999 6.45,-1.3" />
    <path
       style="fill:#ffffff;fill-rule:evenodd;stroke:none"
       inkscape:connector-curvature="0"
       id="path20"
       d="m 78.414286,86.376491 -3.35,0.65 0.95,3.6 3.3,-0.65 -0.9,-3.6" />
    <path
       style="fill:#ffffff;fill-rule:evenodd;stroke:none"
       inkscape:connector-curvature="0"
       id="path22"
       d="m 83.364285,85.426491 -3.299999,0.65 0.95,3.55 3.349999,-0.65 -1,-3.55" />
    <path
       style="fill:#ffffff;fill-rule:evenodd;stroke:none"
       inkscape:connector-curvature="0"
       id="path24"
       d="m 88.364285,84.426491 -3.3,0.65 0.95,3.6 3.3,-0.65 -0.95,-3.6" />
    <path
       style="fill:#ffffff;fill-rule:evenodd;stroke:none"
       inkscape:connector-curvature="0"
       id="path26"
       d="m 93.314285,83.426491 -3.25,0.65 0.9,3.6 3.35,-0.65 -1,-3.6" />
    <path
       style="fill:#ffffff;fill-rule:evenodd;stroke:none"
       inkscape:connector-curvature="0"
       id="path28"
       d="m 98.264285,82.476491 -3.25,0.65 0.9,3.6 3.35,-0.65 -1,-3.6" />
    <path
       style="fill:#ffffff;fill-rule:evenodd;stroke:none"
       inkscape:connector-curvature="0"
       id="path30"
       d="m 103.26429,81.476491 -3.350005,0.65 1.000005,3.6 3.25,-0.65 -0.9,-3.6" />
    <path
       style="fill:#ffffff;fill-rule:evenodd;stroke:none"
       inkscape:connector-curvature="0"
       id="path32"
       d="m 104.86429,81.176491 1,3.6 3.25,-0.7 -0.95,-3.55 -3.3,0.65" />
    <path
       style="fill:#ffffff;fill-rule:evenodd;stroke:none"
       inkscape:connector-curvature="0"
       id="path34"
       d="m 113.06429,79.576491 -3.3,0.6 1,3.6 3.25,-0.65 -0.95,-3.55" />
    <path
       style="fill:#ffffff;fill-rule:evenodd;stroke:none"
       inkscape:connector-curvature="0"
       id="path36"
       d="m 117.96429,78.626491 -3.3,0.65 1,3.5 3.25,-0.65 -0.95,-3.5" />
    <path
       style="fill:#ffffff;fill-rule:evenodd;stroke:none"
       inkscape:connector-curvature="0"
       id="path38"
       d="m 122.86429,77.626491 -3.3,0.65 1,3.55 3.25,-0.65 -0.95,-3.55" />
    <path
       style="fill:#ffffff;fill-rule:evenodd;stroke:none"
       inkscape:connector-curvature="0"
       id="path40"
       d="m 127.76429,76.676491 -3.3,0.65 1,3.6 3.2,-0.7 -0.9,-3.55" />
    <path
       style="fill:#ffffff;fill-rule:evenodd;stroke:none"
       inkscape:connector-curvature="0"
       id="path42"
       d="m 86.064285,115.12649 -3.349999,0.65 0.999999,3.65 3.35,-0.75 -1,-3.55" />
    <path
       style="fill:#ffffff;fill-rule:evenodd;stroke:none"
       inkscape:connector-curvature="0"
       id="path44"
       d="m 91.014285,114.07649 -3.25,0.7 0.9,3.6 3.35,-0.75 -1,-3.55" />
    <path
       style="fill:#ffffff;fill-rule:evenodd;stroke:none"
       inkscape:connector-curvature="0"
       id="path46"
       d="m 96.014285,113.07649 -3.3,0.65 0.95,3.6 3.3,-0.65 -0.95,-3.6" />
    <path
       style="fill:#ffffff;fill-rule:evenodd;stroke:none"
       inkscape:connector-curvature="0"
       id="path48"
       d="m 100.96429,112.02649 -3.250005,0.75 0.9,3.5 3.300005,-0.65 -0.95,-3.6" />
    <path
       style="fill:#ffffff;fill-rule:evenodd;stroke:none"
       inkscape:connector-curvature="0"
       id="path50"
       d="m 105.91429,111.07649 -3.25,0.65 0.9,3.55 3.35,-0.7 -1,-3.5" />
    <path
       style="fill:#ffffff;fill-rule:evenodd;stroke:none"
       inkscape:connector-curvature="0"
       id="path52"
       d="m 110.81429,110.02649 -3.25,0.7 0.95,3.55 3.3,-0.65 -1,-3.6" />
    <path
       style="fill:#ffffff;fill-rule:evenodd;stroke:none"
       inkscape:connector-curvature="0"
       id="path54"
       d="m 115.81429,109.02649 -3.3,0.65 0.9,3.6 3.3,-0.7 -0.9,-3.55" />
    <path
       style="fill:#ffffff;fill-rule:evenodd;stroke:none"
       inkscape:connector-curvature="0"
       id="path56"
       d="m 120.71429,108.07649 -3.3,0.65 0.9,3.5 3.3,-0.65 -0.9,-3.5" />
    <path
       style="fill:#ffffff;fill-rule:evenodd;stroke:none"
       inkscape:connector-curvature="0"
       id="path58"
       d="m 125.61429,107.02649 -3.3,0.65 0.9,3.6 3.3,-0.7 -0.9,-3.55" />
    <path
       style="fill:#ffffff;fill-rule:evenodd;stroke:none"
       inkscape:connector-curvature="0"
       id="path60"
       d="m 130.41429,106.02649 -3.25,0.65 1,3.55 3.25,-0.65 -1,-3.55" />
    <path
       style="fill:#ffffff;fill-rule:evenodd;stroke:none"
       inkscape:connector-curvature="0"
       id="path62"
       d="m 135.31429,105.07649 -3.25,0.65 1,3.5 3.2,-0.65 -0.95,-3.5" />
  </g>
</svg>
